<mxfile host="Electron" agent="Mozilla/5.0 (Windows NT 10.0; Win64; x64) AppleWebKit/537.36 (KHTML, like Gecko) draw.io/24.7.17 Chrome/128.0.6613.36 Electron/32.0.1 Safari/537.36" version="24.7.17">
  <diagram name="Page-1" id="vzUTnkCrkH-sBcbReSuK">
    <mxGraphModel dx="1434" dy="964" grid="1" gridSize="10" guides="1" tooltips="1" connect="1" arrows="1" fold="1" page="1" pageScale="1" pageWidth="850" pageHeight="1100" math="0" shadow="0">
      <root>
        <mxCell id="0" />
        <mxCell id="1" parent="0" />
        <mxCell id="vEQ63NyZagUwAnrl1oSq-1" value="USERS" style="rounded=0;whiteSpace=wrap;html=1;" vertex="1" parent="1">
          <mxGeometry x="240" y="400" width="120" height="60" as="geometry" />
        </mxCell>
        <mxCell id="vEQ63NyZagUwAnrl1oSq-5" style="edgeStyle=orthogonalEdgeStyle;rounded=0;orthogonalLoop=1;jettySize=auto;html=1;entryX=1;entryY=0.75;entryDx=0;entryDy=0;" edge="1" parent="1" source="vEQ63NyZagUwAnrl1oSq-2" target="vEQ63NyZagUwAnrl1oSq-1">
          <mxGeometry relative="1" as="geometry" />
        </mxCell>
        <mxCell id="vEQ63NyZagUwAnrl1oSq-2" value="ITEMS" style="rounded=0;whiteSpace=wrap;html=1;" vertex="1" parent="1">
          <mxGeometry x="360" y="520" width="120" height="60" as="geometry" />
        </mxCell>
        <mxCell id="vEQ63NyZagUwAnrl1oSq-6" style="edgeStyle=orthogonalEdgeStyle;rounded=0;orthogonalLoop=1;jettySize=auto;html=1;entryX=1;entryY=0.5;entryDx=0;entryDy=0;" edge="1" parent="1" source="vEQ63NyZagUwAnrl1oSq-3" target="vEQ63NyZagUwAnrl1oSq-1">
          <mxGeometry relative="1" as="geometry" />
        </mxCell>
        <mxCell id="vEQ63NyZagUwAnrl1oSq-7" style="edgeStyle=orthogonalEdgeStyle;rounded=0;orthogonalLoop=1;jettySize=auto;html=1;entryX=1;entryY=0.5;entryDx=0;entryDy=0;" edge="1" parent="1" source="vEQ63NyZagUwAnrl1oSq-3" target="vEQ63NyZagUwAnrl1oSq-2">
          <mxGeometry relative="1" as="geometry" />
        </mxCell>
        <mxCell id="vEQ63NyZagUwAnrl1oSq-3" value="TRANSACTIONS" style="rounded=0;whiteSpace=wrap;html=1;" vertex="1" parent="1">
          <mxGeometry x="480" y="400" width="120" height="60" as="geometry" />
        </mxCell>
        <mxCell id="vEQ63NyZagUwAnrl1oSq-8" value="MONGO" style="text;html=1;align=center;verticalAlign=middle;resizable=0;points=[];autosize=1;strokeColor=none;fillColor=none;" vertex="1" parent="1">
          <mxGeometry x="120" y="600" width="70" height="30" as="geometry" />
        </mxCell>
        <mxCell id="vEQ63NyZagUwAnrl1oSq-32" style="edgeStyle=orthogonalEdgeStyle;rounded=0;orthogonalLoop=1;jettySize=auto;html=1;" edge="1" parent="1" source="vEQ63NyZagUwAnrl1oSq-15" target="vEQ63NyZagUwAnrl1oSq-2">
          <mxGeometry relative="1" as="geometry" />
        </mxCell>
        <mxCell id="vEQ63NyZagUwAnrl1oSq-15" value="ITEM PAGE" style="rounded=0;whiteSpace=wrap;html=1;" vertex="1" parent="1">
          <mxGeometry x="400" y="720" width="120" height="60" as="geometry" />
        </mxCell>
        <mxCell id="vEQ63NyZagUwAnrl1oSq-29" style="edgeStyle=orthogonalEdgeStyle;rounded=0;orthogonalLoop=1;jettySize=auto;html=1;entryX=0.5;entryY=1;entryDx=0;entryDy=0;" edge="1" parent="1" source="vEQ63NyZagUwAnrl1oSq-17" target="vEQ63NyZagUwAnrl1oSq-1">
          <mxGeometry relative="1" as="geometry" />
        </mxCell>
        <mxCell id="vEQ63NyZagUwAnrl1oSq-30" style="edgeStyle=orthogonalEdgeStyle;rounded=0;orthogonalLoop=1;jettySize=auto;html=1;entryX=0;entryY=0.5;entryDx=0;entryDy=0;" edge="1" parent="1" source="vEQ63NyZagUwAnrl1oSq-17" target="vEQ63NyZagUwAnrl1oSq-2">
          <mxGeometry relative="1" as="geometry">
            <Array as="points">
              <mxPoint x="320" y="550" />
            </Array>
          </mxGeometry>
        </mxCell>
        <mxCell id="vEQ63NyZagUwAnrl1oSq-31" style="edgeStyle=orthogonalEdgeStyle;rounded=0;orthogonalLoop=1;jettySize=auto;html=1;" edge="1" parent="1" source="vEQ63NyZagUwAnrl1oSq-17" target="vEQ63NyZagUwAnrl1oSq-3">
          <mxGeometry relative="1" as="geometry">
            <Array as="points">
              <mxPoint x="330" y="800" />
              <mxPoint x="540" y="800" />
            </Array>
          </mxGeometry>
        </mxCell>
        <mxCell id="vEQ63NyZagUwAnrl1oSq-17" value="CHAT" style="rounded=0;whiteSpace=wrap;html=1;" vertex="1" parent="1">
          <mxGeometry x="240" y="720" width="120" height="60" as="geometry" />
        </mxCell>
        <mxCell id="vEQ63NyZagUwAnrl1oSq-22" value="IMAGES" style="rounded=0;whiteSpace=wrap;html=1;" vertex="1" parent="1">
          <mxGeometry x="240" y="880" width="120" height="60" as="geometry" />
        </mxCell>
        <mxCell id="vEQ63NyZagUwAnrl1oSq-23" value="" style="endArrow=none;dashed=1;html=1;rounded=0;" edge="1" parent="1">
          <mxGeometry width="50" height="50" relative="1" as="geometry">
            <mxPoint x="120" y="600" as="sourcePoint" />
            <mxPoint x="680" y="600" as="targetPoint" />
          </mxGeometry>
        </mxCell>
        <mxCell id="vEQ63NyZagUwAnrl1oSq-24" value="" style="endArrow=none;dashed=1;html=1;rounded=0;" edge="1" parent="1">
          <mxGeometry width="50" height="50" relative="1" as="geometry">
            <mxPoint x="120" y="840" as="sourcePoint" />
            <mxPoint x="680" y="840" as="targetPoint" />
          </mxGeometry>
        </mxCell>
        <mxCell id="vEQ63NyZagUwAnrl1oSq-25" value="POSTGRESQL" style="text;html=1;align=center;verticalAlign=middle;resizable=0;points=[];autosize=1;strokeColor=none;fillColor=none;" vertex="1" parent="1">
          <mxGeometry x="120" y="360" width="110" height="30" as="geometry" />
        </mxCell>
        <mxCell id="vEQ63NyZagUwAnrl1oSq-26" value="STORAGE" style="text;html=1;align=center;verticalAlign=middle;resizable=0;points=[];autosize=1;strokeColor=none;fillColor=none;" vertex="1" parent="1">
          <mxGeometry x="115" y="840" width="80" height="30" as="geometry" />
        </mxCell>
        <mxCell id="vEQ63NyZagUwAnrl1oSq-27" value="" style="endArrow=none;dashed=1;html=1;rounded=0;" edge="1" parent="1">
          <mxGeometry width="50" height="50" relative="1" as="geometry">
            <mxPoint x="130" y="360" as="sourcePoint" />
            <mxPoint x="690" y="360" as="targetPoint" />
          </mxGeometry>
        </mxCell>
        <mxCell id="vEQ63NyZagUwAnrl1oSq-28" value="LOGS" style="rounded=0;whiteSpace=wrap;html=1;" vertex="1" parent="1">
          <mxGeometry x="560" y="720" width="120" height="60" as="geometry" />
        </mxCell>
        <mxCell id="vEQ63NyZagUwAnrl1oSq-33" value="ITEM REVIEWS" style="rounded=0;whiteSpace=wrap;html=1;" vertex="1" parent="1">
          <mxGeometry x="100" y="720" width="120" height="60" as="geometry" />
        </mxCell>
      </root>
    </mxGraphModel>
  </diagram>
</mxfile>
